<svg width="361" height="118" viewBox="0 0 361 118" fill="none" xmlns="http://www.w3.org/2000/svg">
<path d="M245.184 0H303.184V58H245.184V0Z" fill="#FF00AA"/>
<path d="M245.184 54H303.184V112H245.184V54Z" fill="#00C2CB"/>
<path d="M296.184 54H360.184V118H296.184V54Z" fill="#FFD230"/>
<path d="M297.184 9H354.184V66H297.184V9Z" fill="#7ED957"/>
<path d="M20.736 102.28C13.9093 102.28 8.74667 100.36 5.248 96.52C1.74933 92.5947 0 87.0053 0 79.752V74.632H13.312V80.776C13.312 86.5787 15.744 89.48 20.608 89.48C22.9973 89.48 24.7893 88.7973 25.984 87.432C27.264 85.9813 27.904 83.6773 27.904 80.52C27.904 76.7653 27.0507 73.48 25.344 70.664C23.6373 67.7627 20.48 64.3067 15.872 60.296C10.0693 55.176 6.016 50.568 3.712 46.472C1.408 42.2907 0.256 37.5973 0.256 32.392C0.256 25.3093 2.048 19.848 5.632 16.008C9.216 12.0827 14.4213 10.12 21.248 10.12C27.9893 10.12 33.0667 12.0827 36.48 16.008C39.9787 19.848 41.728 25.3947 41.728 32.648V36.36H28.416V31.752C28.416 28.68 27.8187 26.4613 26.624 25.096C25.4293 23.6453 23.68 22.92 21.376 22.92C16.6827 22.92 14.336 25.7787 14.336 31.496C14.336 34.7387 15.1893 37.768 16.896 40.584C18.688 43.4 21.888 46.8133 26.496 50.824C32.384 55.944 36.4373 60.5947 38.656 64.776C40.8747 68.9573 41.984 73.864 41.984 79.496C41.984 86.8347 40.1493 92.4667 36.48 96.392C32.896 100.317 27.648 102.28 20.736 102.28Z" fill="white"/>
<path d="M50.057 11.4H64.137V47.88H79.241V11.4H93.321V101H79.241V60.68H64.137V101H50.057V11.4Z" fill="white"/>
<path d="M103.807 11.4H142.207V24.2H117.887V47.88H137.215V60.68H117.887V88.2H142.207V101H103.807V11.4Z" fill="white"/>
<path d="M150.307 11.4H164.387V88.2H187.555V101H150.307V11.4Z" fill="white"/>
<path d="M194.307 11.4H231.555V24.2H208.387V49.16H226.563V61.96H208.387V101H194.307V11.4Z" fill="white"/>
<path d="M264.432 16.4H278.512V106H264.432V16.4Z" fill="white"/>
<path d="M289.057 16.4H306.721L320.417 70.032H320.673V16.4H333.217V106H318.753L301.857 40.592H301.601V106H289.057V16.4Z" fill="white"/>
</svg>
